#usda 1.0
(
    endTimeCode = 1000000
    metersPerUnit = 1
    startTimeCode = 0
    timeCodesPerSecond = 60
    upAxis = "Z"
)

def "Render" (
    hide_in_stage_window = true
    no_delete = true
)
{
    def "OmniverseKit"
    {
        def "HydraTextures" (
            hide_in_stage_window = true
            no_delete = true
        )
        {
            def RenderProduct "omni_kit_widget_viewport_ViewportTexture_0" (
                prepend apiSchemas = ["OmniRtxSettingsCommonAdvancedAPI_1", "OmniRtxSettingsRtAdvancedAPI_1", "OmniRtxSettingsPtAdvancedAPI_1", "OmniRtxPostColorGradingAPI_1", "OmniRtxPostChromaticAberrationAPI_1", "OmniRtxPostBloomPhysicalAPI_1", "OmniRtxPostMatteObjectAPI_1", "OmniRtxPostCompositingAPI_1", "OmniRtxPostDofAPI_1", "OmniRtxPostMotionBlurAPI_1", "OmniRtxPostTvNoiseAPI_1", "OmniRtxPostTonemapIrayReinhardAPI_1", "OmniRtxPostDebugSettingsAPI_1", "OmniRtxDebugSettingsAPI_1"]
                hide_in_stage_window = true
                no_delete = true
            )
            {
                rel camera = </OmniverseKit_Persp>
                token omni:rtx:ambientOcclusion:denoiserMode = "none"
                token omni:rtx:background:source:texture:textureMode = "repeatMirrored"
                token omni:rtx:background:source:type = "domeLight"
                bool omni:rtx:debug:view:pixelDebug:enableFixedTextPos = 1
                token omni:rtx:directLighting:sampledLighting:denoisingTechnique = "None"
                bool omni:rtx:dlss:frameGeneration = 0
                float3 omni:rtx:domeLight:rotationAxis = (0, 0, 1)
                bool omni:rtx:indirectDiffuse:denoiser:enabled = 0
                bool omni:rtx:material:db:syncLoads = 1
                token omni:rtx:post:dlss:execMode = "performance"
                bool omni:rtx:post:registeredCompositing:invertColorCorrection = 1
                bool omni:rtx:post:registeredCompositing:invertToneMap = 1
                bool omni:rtx:pt:adaptiveSampling:filterError = 0
                uint omni:rtx:pt:adaptiveSampling:fixedSppIterations = 2
                int omni:rtx:pt:clampSpp = 64
                uint omni:rtx:pt:limits:maxBounces = 3
                uint omni:rtx:pt:limits:maxGlossyBounces = 3
                uint omni:rtx:pt:maxSamplesPerLaunch = 2073600
                uint omni:rtx:pt:mgpu:maxPixelsPerRegionExponent = 12
                int omni:rtx:pt:samplesPerIteration = 64
                uint omni:rtx:pt:samplesPerPixel = 64
                bool omni:rtx:reflections:denoiser:enabled = 0
                token omni:rtx:rendermode = "RealTimePathTracing"
                color3f omni:rtx:rt:ambientLight:color = (0.1, 0.1, 0.1)
                bool omni:rtx:rt:demoire = 0
                bool omni:rtx:rt:ecoMode:enabled = 0
                bool omni:rtx:rt:lightcache:spatialCache:dontResolveConflicts = 1
                int omni:rtx:rt:sss:samples = 1
                uint omni:rtx:rtpt:maxVolumeBounces = 15
                float omni:rtx:rtpt:modulatingRoughnessThreshold = 0.08
                bool omni:rtx:scene:hydra:materialSyncLoads = 1
                bool omni:rtx:scene:hydra:mdlMaterialWarmup = 1
                rel orderedVars = </Render/Vars/LdrColor>
                custom bool overrideClipRange = 0
                uniform int2 resolution = (1280, 720)
            }
        }
    }

    def RenderSettings "OmniverseGlobalRenderSettings" (
        prepend apiSchemas = ["OmniRtxSettingsGlobalRtAdvancedAPI_1", "OmniRtxSettingsGlobalPtAdvancedAPI_1"]
        no_delete = true
    )
    {
        rel products = [
            </Render/OmniverseKit/HydraTextures/omni_kit_widget_viewport_ViewportTexture_0>,
            </Render/OmniverseKit/HydraTextures/Replicator>,
        ]
    }

    def "Vars"
    {
        def RenderVar "LdrColor" (
            hide_in_stage_window = true
            no_delete = true
        )
        {
            uniform string sourceName = "LdrColor"
            uniform token sourceType = "raw"
        }
    }
}

over "OmniverseKit_Persp"
{
    float exposure:fStop = 5
    float exposure:responsivity = 1.1026709
    float exposure:time = 0.02
}

def "World"
{
    def PhysicsScene "PhysicsScene" (
        delete apiSchemas = ["MjcSceneAPI", "NewtonXpbdSceneAPI"]
        prepend apiSchemas = ["NewtonSceneAPI", "PhysxSceneAPI"]
    )
    {
        vector3f physics:gravityDirection = (0, 0, -1)
        float physics:gravityMagnitude = 9.81
        uniform token physxScene:broadphaseType = "MBP"
        bool physxScene:enableCCD = 0
        bool physxScene:enableGPUDynamics = 0
        uint physxScene:timeStepsPerSecond = 1000
    }

    def Xform "VacuumTubeLauncher"
    {
        def Xform "Visualization"
        {
            def Xform "TrueScale"
            {
                token visibility = "invisible"

                def BasisCurves "Tube_vacuum"
                {
                    uniform token basis = "bezier"
                    int[] curveVertexCounts = [501]
                    point3f[] points = [(0, 0, 0), (70.71068, 0, 70.71068), (141.42136, 0, 141.42136), (212.13203, 0, 212.13203), (282.8427, 0, 282.8427), (353.5534, 0, 353.5534), (424.26407, 0, 424.26407), (494.97476, 0, 494.97476), (565.6854, 0, 565.6854), (636.3961, 0, 636.3961), (707.1068, 0, 707.1068), (777.81744, 0, 777.81744), (848.52814, 0, 848.52814), (919.23883, 0, 919.23883), (989.9495, 0, 989.9495), (1060.6602, 0, 1060.6602), (1131.3708, 0, 1131.3708), (1202.0815, 0, 1202.0815), (1272.7922, 0, 1272.7922), (1343.5029, 0, 1343.5029), (1414.2136, 0, 1414.2136), (1484.9242, 0, 1484.9242), (1555.6349, 0, 1555.6349), (1626.3456, 0, 1626.3456), (1697.0563, 0, 1697.0563), (1767.767, 0, 1767.767), (1838.4777, 0, 1838.4777), (1909.1884, 0, 1909.1884), (1979.899, 0, 1979.899), (2050.6096, 0, 2050.6096), (2121.3203, 0, 2121.3203), (2192.031, 0, 2192.031), (2262.7417, 0, 2262.7417), (2333.4524, 0, 2333.4524), (2404.163, 0, 2404.163), (2474.8738, 0, 2474.8738), (2545.5845, 0, 2545.5845), (2616.2952, 0, 2616.2952), (2687.0059, 0, 2687.0059), (2757.7166, 0, 2757.7166), (2828.4272, 0, 2828.4272), (2899.1377, 0, 2899.1377), (2969.8484, 0, 2969.8484), (3040.559, 0, 3040.559), (3111.2698, 0, 3111.2698), (3181.9805, 0, 3181.9805), (3252.6912, 0, 3252.6912), (3323.4019, 0, 3323.4019), (3394.1125, 0, 3394.1125), (3464.8232, 0, 3464.8232), (3535.534, 0, 3535.534), (3606.2446, 0, 3606.2446), (3676.9553, 0, 3676.9553), (3747.666, 0, 3747.666), (3818.3767, 0, 3818.3767), (3889.0874, 0, 3889.0874), (3959.798, 0, 3959.798), (4030.5085, 0, 4030.5085), (4101.219, 0, 4101.219), (4171.93, 0, 4171.93), (4242.6406, 0, 4242.6406), (4313.3516, 0, 4313.3516), (4384.062, 0, 4384.062), (4454.773, 0, 4454.773), (4525.4834, 0, 4525.4834), (4596.194, 0, 4596.194), (4666.905, 0, 4666.905), (4737.615, 0, 4737.615), (4808.326, 0, 4808.326), (4879.0366, 0, 4879.0366), (4949.7476, 0, 4949.7476), (5020.458, 0, 5020.458), (5091.169, 0, 5091.169), (5161.8794, 0, 5161.8794), (5232.5903, 0, 5232.5903), (5303.301, 0, 5303.301), (5374.0117, 0, 5374.0117), (5444.722, 0, 5444.722), (5515.433, 0, 5515.433), (5586.1436, 0, 5586.1436), (5656.8545, 0, 5656.8545), (5727.565, 0, 5727.565), (5798.2754, 0, 5798.2754), (5868.9863, 0, 5868.9863), (5939.697, 0, 5939.697), (6010.4077, 0, 6010.4077), (6081.118, 0, 6081.118), (6151.829, 0, 6151.829), (6222.5396, 0, 6222.5396), (6293.2505, 0, 6293.2505), (6363.961, 0, 6363.961), (6434.672, 0, 6434.672), (6505.3823, 0, 6505.3823), (6576.0933, 0, 6576.0933), (6646.8037, 0, 6646.8037), (6717.5146, 0, 6717.5146), (6788.225, 0, 6788.225), (6858.9355, 0, 6858.9355), (6929.6465, 0, 6929.6465), (7000.357, 0, 7000.357), (7071.068, 0, 7071.068), (7141.7783, 0, 7141.7783), (7212.4893, 0, 7212.4893), (7283.1997, 0, 7283.1997), (7353.9106, 0, 7353.9106), (7424.621, 0, 7424.621), (7495.332, 0, 7495.332), (7566.0425, 0, 7566.0425), (7636.7534, 0, 7636.7534), (7707.464, 0, 7707.464), (7778.175, 0, 7778.175), (7848.8853, 0, 7848.8853), (7919.596, 0, 7919.596), (7990.3066, 0, 7990.3066), (8061.017, 0, 8061.017), (8131.728, 0, 8131.728), (8202.438, 0, 8202.438), (8273.149, 0, 8273.149), (8343.86, 0, 8343.86), (8414.57, 0, 8414.57), (8485.281, 0, 8485.281), (8555.992, 0, 8555.992), (8626.703, 0, 8626.703), (8697.413, 0, 8697.413), (8768.124, 0, 8768.124), (8838.835, 0, 8838.835), (8909.546, 0, 8909.546), (8980.256, 0, 8980.256), (9050.967, 0, 9050.967), (9121.678, 0, 9121.678), (9192.388, 0, 9192.388), (9263.099, 0, 9263.099), (9333.81, 0, 9333.81), (9404.5205, 0, 9404.5205), (9475.23, 0, 9475.23), (9545.941, 0, 9545.941), (9616.652, 0, 9616.652), (9687.363, 0, 9687.363), (9758.073, 0, 9758.073), (9828.784, 0, 9828.784), (9899.495, 0, 9899.495), (9970.206, 0, 9970.206), (10040.916, 0, 10040.916), (10111.627, 0, 10111.627), (10182.338, 0, 10182.338), (10253.048, 0, 10253.048), (10323.759, 0, 10323.759), (10394.47, 0, 10394.47), (10465.181, 0, 10465.181), (10535.891, 0, 10535.891), (10606.602, 0, 10606.602), (10677.3125, 0, 10677.3125), (10748.023, 0, 10748.023), (10818.733, 0, 10818.733), (10889.444, 0, 10889.444), (10960.155, 0, 10960.155), (11030.866, 0, 11030.866), (11101.576, 0, 11101.576), (11172.287, 0, 11172.287), (11242.998, 0, 11242.998), (11313.709, 0, 11313.709), (11384.419, 0, 11384.419), (11455.13, 0, 11455.13), (11525.841, 0, 11525.841), (11596.551, 0, 11596.551), (11667.262, 0, 11667.262), (11737.973, 0, 11737.973), (11808.684, 0, 11808.684), (11879.394, 0, 11879.394), (11950.1045, 0, 11950.1045), (12020.815, 0, 12020.815), (12091.526, 0, 12091.526), (12162.236, 0, 12162.236), (12232.947, 0, 12232.947), (12303.658, 0, 12303.658), (12374.369, 0, 12374.369), (12445.079, 0, 12445.079), (12515.79, 0, 12515.79), (12586.501, 0, 12586.501), (12657.211, 0, 12657.211), (12727.922, 0, 12727.922), (12798.633, 0, 12798.633), (12869.344, 0, 12869.344), (12940.054, 0, 12940.054), (13010.765, 0, 13010.765), (13081.476, 0, 13081.476), (13152.187, 0, 13152.187), (13222.896, 0, 13222.896), (13293.607, 0, 13293.607), (13364.318, 0, 13364.318), (13435.029, 0, 13435.029), (13505.739, 0, 13505.739), (13576.45, 0, 13576.45), (13647.161, 0, 13647.161), (13717.871, 0, 13717.871), (13788.582, 0, 13788.582), (13859.293, 0, 13859.293), (13930.004, 0, 13930.004), (14000.714, 0, 14000.714), (14071.425, 0, 14071.425), (14142.136, 0, 14142.136), (14212.847, 0, 14212.846), (14283.5625, 0, 14283.551), (14354.287, 0, 14354.248), (14425.024, 0, 14424.932), (14495.78, 0, 14495.598), (14566.557, 0, 14566.242), (14637.359, 0, 14636.86), (14708.193, 0, 14707.448), (14779.062, 0, 14778.001), (14849.969, 0, 14848.515), (14920.92, 0, 14918.983), (14991.919, 0, 14989.405), (15062.97, 0, 15059.773), (15134.078, 0, 15130.085), (15205.246, 0, 15200.336), (15276.4795, 0, 15270.52), (15347.781, 0, 15340.634), (15419.157, 0, 15410.673), (15490.611, 0, 15480.632), (15562.147, 0, 15550.508), (15633.77, 0, 15620.295), (15705.481, 0, 15689.99), (15777.289, 0, 15759.587), (15849.194, 0, 15829.082), (15921.203, 0, 15898.471), (15993.319, 0, 15967.747), (16065.546, 0, 16036.909), (16137.887, 0, 16105.95), (16210.343, 0, 16174.871), (16282.914, 0, 16243.672), (16355.6, 0, 16312.351), (16428.398, 0, 16380.908), (16501.312, 0, 16449.346), (16574.342, 0, 16517.66), (16647.482, 0, 16585.854), (16720.738, 0, 16653.924), (16794.107, 0, 16721.873), (16867.588, 0, 16789.7), (16941.184, 0, 16857.402), (17014.89, 0, 16924.984), (17088.71, 0, 16992.441), (17162.643, 0, 17059.777), (17236.688, 0, 17126.988), (17310.844, 0, 17194.078), (17385.111, 0, 17261.041), (17459.492, 0, 17327.883), (17533.982, 0, 17394.6), (17608.584, 0, 17461.191), (17683.297, 0, 17527.66), (17758.121, 0, 17594.002), (17833.055, 0, 17660.22), (17908.1, 0, 17726.314), (17983.254, 0, 17792.283), (18058.518, 0, 17858.127), (18133.89, 0, 17923.844), (18209.375, 0, 17989.436), (18284.967, 0, 18054.902), (18360.668, 0, 18120.242), (18436.479, 0, 18185.455), (18512.396, 0, 18250.543), (18588.424, 0, 18315.502), (18664.56, 0, 18380.336), (18740.803, 0, 18445.043), (18817.154, 0, 18509.623), (18893.613, 0, 18574.074), (18970.178, 0, 18638.398), (19046.852, 0, 18702.596), (19123.63, 0, 18766.666), (19200.518, 0, 18830.607), (19277.512, 0, 18894.42), (19354.61, 0, 18958.104), (19431.816, 0, 19021.66), (19509.127, 0, 19085.086), (19586.543, 0, 19148.385), (19664.064, 0, 19211.555), (19741.693, 0, 19274.594), (19819.426, 0, 19337.504), (19897.262, 0, 19400.285), (19975.203, 0, 19462.936), (20053.25, 0, 19525.455), (20131.398, 0, 19587.846), (20209.652, 0, 19650.107), (20288.01, 0, 19712.236), (20366.47, 0, 19774.236), (20445.035, 0, 19836.104), (20523.703, 0, 19897.842), (20602.473, 0, 19959.447), (20681.344, 0, 20020.922), (20760.32, 0, 20082.266), (20839.396, 0, 20143.477), (20918.574, 0, 20204.557), (20997.855, 0, 20265.504), (21077.238, 0, 20326.318), (21156.72, 0, 20387.002), (21236.305, 0, 20447.553), (21315.99, 0, 20507.969), (21395.775, 0, 20568.254), (21475.662, 0, 20628.406), (21555.648, 0, 20688.424), (21635.734, 0, 20748.309), (21715.92, 0, 20808.06), (21796.205, 0, 20867.678), (21876.59, 0, 20927.162), (21957.074, 0, 20986.512), (22037.656, 0, 21045.729), (22118.336, 0, 21104.809), (22199.115, 0, 21163.756), (22279.994, 0, 21222.568), (22360.969, 0, 21281.244), (22442.041, 0, 21339.787), (22523.213, 0, 21398.193), (22604.48, 0, 21456.465), (22685.844, 0, 21514.602), (22767.307, 0, 21572.602), (22848.863, 0, 21630.465), (22930.518, 0, 21688.193), (23012.27, 0, 21745.785), (23094.115, 0, 21803.242), (23176.057, 0, 21860.56), (23258.094, 0, 21917.744), (23340.227, 0, 21974.79), (23422.455, 0, 22031.7), (23504.777, 0, 22088.47), (23587.193, 0, 22145.105), (23669.705, 0, 22201.602), (23752.31, 0, 22257.96), (23835.008, 0, 22314.184), (23917.8, 0, 22370.268), (24000.688, 0, 22426.213), (24083.666, 0, 22482.021), (24166.738, 0, 22537.69), (24249.902, 0, 22593.22), (24333.16, 0, 22648.613), (24416.508, 0, 22703.865), (24499.95, 0, 22758.98), (24583.482, 0, 22813.955), (24667.107, 0, 22868.791), (24750.822, 0, 22923.486), (24834.629, 0, 22978.043), (24918.527, 0, 23032.46), (25002.516, 0, 23086.736), (25086.594, 0, 23140.875), (25170.762, 0, 23194.871), (25255.021, 0, 23248.727), (25339.37, 0, 23302.443), (25423.807, 0, 23356.018), (25508.334, 0, 23409.453), (25592.95, 0, 23462.746), (25677.654, 0, 23515.898), (25762.445, 0, 23568.91), (25847.328, 0, 23621.78), (25932.297, 0, 23674.508), (26017.354, 0, 23727.094), (26102.498, 0, 23779.54), (26187.729, 0, 23831.842), (26273.047, 0, 23884.002), (26358.453, 0, 23936.02), (26443.945, 0, 23987.896), (26529.523, 0, 24039.629), (26615.188, 0, 24091.219), (26700.94, 0, 24142.668), (26786.775, 0, 24193.973), (26872.695, 0, 24245.133), (26958.703, 0, 24296.152), (27044.795, 0, 24347.027), (27130.97, 0, 24397.758), (27217.23, 0, 24448.346), (27303.576, 0, 24498.79), (27390.004, 0, 24549.09), (27476.516, 0, 24599.246), (27563.113, 0, 24649.258), (27649.791, 0, 24699.125), (27736.553, 0, 24748.846), (27823.398, 0, 24798.424), (27910.326, 0, 24847.857), (27997.336, 0, 24897.146), (28084.428, 0, 24946.29), (28171.602, 0, 24995.287), (28258.855, 0, 25044.139), (28346.191, 0, 25092.846), (28433.61, 0, 25141.408), (28521.107, 0, 25189.822), (28608.686, 0, 25238.092), (28696.346, 0, 25286.217), (28784.084, 0, 25334.193), (28871.904, 0, 25382.025), (28959.803, 0, 25429.709), (29047.78, 0, 25477.248), (29135.838, 0, 25524.639), (29223.973, 0, 25571.885), (29312.188, 0, 25618.982), (29400.48, 0, 25665.932), (29488.852, 0, 25712.736), (29577.3, 0, 25759.393), (29665.826, 0, 25805.9), (29754.432, 0, 25852.262), (29843.111, 0, 25898.475), (29931.87, 0, 25944.54), (30020.705, 0, 25990.457), (30109.615, 0, 26036.227), (30198.604, 0, 26081.848), (30287.666, 0, 26127.32), (30376.805, 0, 26172.645), (30466.02, 0, 26217.82), (30555.309, 0, 26262.846), (30644.672, 0, 26307.725), (30734.111, 0, 26352.453), (30823.625, 0, 26397.033), (30913.213, 0, 26441.463), (31002.873, 0, 26485.744), (31092.61, 0, 26529.877), (31182.418, 0, 26573.857), (31272.299, 0, 26617.69), (31362.254, 0, 26661.373), (31452.281, 0, 26704.904), (31542.38, 0, 26748.287), (31632.553, 0, 26791.52), (31722.797, 0, 26834.602), (31813.113, 0, 26877.533), (31903.5, 0, 26920.312), (31993.957, 0, 26962.943), (32084.486, 0, 27005.422), (32175.086, 0, 27047.75), (32265.758, 0, 27089.928), (32356.498, 0, 27131.953), (32447.309, 0, 27173.828), (32538.188, 0, 27215.55), (32629.137, 0, 27257.123), (32720.156, 0, 27298.543), (32811.242, 0, 27339.812), (32902.4, 0, 27380.928), (32993.625, 0, 27421.893), (33084.918, 0, 27462.705), (33176.277, 0, 27503.365), (33267.703, 0, 27543.873), (33359.2, 0, 27584.229), (33450.76, 0, 27624.432), (33542.395, 0, 27664.482), (33634.09, 0, 27704.379), (33725.85, 0, 27744.123), (33817.68, 0, 27783.715), (33909.574, 0, 27823.154), (34001.535, 0, 27862.44), (34093.56, 0, 27901.57), (34185.652, 0, 27940.549), (34277.805, 0, 27979.375), (34370.027, 0, 28018.045), (34462.312, 0, 28056.562), (34554.66, 0, 28094.928), (34647.07, 0, 28133.137), (34739.547, 0, 28171.191), (34832.086, 0, 28209.094), (34924.688, 0, 28246.842), (35017.35, 0, 28284.434), (35110.082, 0, 28321.871), (35202.87, 0, 28359.156), (35295.723, 0, 28396.285), (35388.637, 0, 28433.26), (35481.61, 0, 28470.078), (35574.645, 0, 28506.742), (35667.742, 0, 28543.252), (35760.902, 0, 28579.605), (35854.12, 0, 28615.805), (35947.4, 0, 28651.848), (36040.74, 0, 28687.736), (36134.133, 0, 28723.467), (36227.594, 0, 28759.043), (36321.11, 0, 28794.465), (36414.684, 0, 28829.729), (36508.32, 0, 28864.838), (36602.01, 0, 28899.791), (36695.76, 0, 28934.586), (36789.57, 0, 28969.227), (36883.438, 0, 29003.71), (36977.36, 0, 29038.037), (37071.34, 0, 29072.209), (37165.38, 0, 29106.223), (37259.473, 0, 29140.08), (37353.625, 0, 29173.78), (37447.83, 0, 29207.322), (37542.094, 0, 29240.709), (37636.41, 0, 29273.938), (37730.78, 0, 29307.01), (37825.21, 0, 29339.924), (37919.69, 0, 29372.682), (38014.23, 0, 29405.281), (38108.82, 0, 29437.723), (38203.47, 0, 29470.008), (38298.164, 0, 29502.135), (38392.918, 0, 29534.104), (38487.723, 0, 29565.914), (38582.582, 0, 29597.566), (38677.492, 0, 29629.06), (38772.457, 0, 29660.396), (38867.473, 0, 29691.574), (38962.54, 0, 29722.594), (39057.656, 0, 29753.455), (39152.83, 0, 29784.158), (39248.05, 0, 29814.701), (39343.32, 0, 29845.086)]
                    color3f[] primvars:displayColor = [(0.2, 0.5, 1)]
                    float[] primvars:displayOpacity = [0.35]
                    uniform token type = "linear"
                    float[] widths = [2, 2, 2, 2, 2, 2, 2, 2, 2, 2, 2, 2, 2, 2, 2, 2, 2, 2, 2, 2, 2, 2, 2, 2, 2, 2, 2, 2, 2, 2, 2, 2, 2, 2, 2, 2, 2, 2, 2, 2, 2, 2, 2, 2, 2, 2, 2, 2, 2, 2, 2, 2, 2, 2, 2, 2, 2, 2, 2, 2, 2, 2, 2, 2, 2, 2, 2, 2, 2, 2, 2, 2, 2, 2, 2, 2, 2, 2, 2, 2, 2, 2, 2, 2, 2, 2, 2, 2, 2, 2, 2, 2, 2, 2, 2, 2, 2, 2, 2, 2, 2, 2, 2, 2, 2, 2, 2, 2, 2, 2, 2, 2, 2, 2, 2, 2, 2, 2, 2, 2, 2, 2, 2, 2, 2, 2, 2, 2, 2, 2, 2, 2, 2, 2, 2, 2, 2, 2, 2, 2, 2, 2, 2, 2, 2, 2, 2, 2, 2, 2, 2, 2, 2, 2, 2, 2, 2, 2, 2, 2, 2, 2, 2, 2, 2, 2, 2, 2, 2, 2, 2, 2, 2, 2, 2, 2, 2, 2, 2, 2, 2, 2, 2, 2, 2, 2, 2, 2, 2, 2, 2, 2, 2, 2, 2, 2, 2, 2, 2, 2, 2, 2, 2, 2, 2, 2, 2, 2, 2, 2, 2, 2, 2, 2, 2, 2, 2, 2, 2, 2, 2, 2, 2, 2, 2, 2, 2, 2, 2, 2, 2, 2, 2, 2, 2, 2, 2, 2, 2, 2, 2, 2, 2, 2, 2, 2, 2, 2, 2, 2, 2, 2, 2, 2, 2, 2, 2, 2, 2, 2, 2, 2, 2, 2, 2, 2, 2, 2, 2, 2, 2, 2, 2, 2, 2, 2, 2, 2, 2, 2, 2, 2, 2, 2, 2, 2, 2, 2, 2, 2, 2, 2, 2, 2, 2, 2, 2, 2, 2, 2, 2, 2, 2, 2, 2, 2, 2, 2, 2, 2, 2, 2, 2, 2, 2, 2, 2, 2, 2, 2, 2, 2, 2, 2, 2, 2, 2, 2, 2, 2, 2, 2, 2, 2, 2, 2, 2, 2, 2, 2, 2, 2, 2, 2, 2, 2, 2, 2, 2, 2, 2, 2, 2, 2, 2, 2, 2, 2, 2, 2, 2, 2, 2, 2, 2, 2, 2, 2, 2, 2, 2, 2, 2, 2, 2, 2, 2, 2, 2, 2, 2, 2, 2, 2, 2, 2, 2, 2, 2, 2, 2, 2, 2, 2, 2, 2, 2, 2, 2, 2, 2, 2, 2, 2, 2, 2, 2, 2, 2, 2, 2, 2, 2, 2, 2, 2, 2, 2, 2, 2, 2, 2, 2, 2, 2, 2, 2, 2, 2, 2, 2, 2, 2, 2, 2, 2, 2, 2, 2, 2, 2, 2, 2, 2, 2, 2, 2, 2, 2, 2, 2, 2, 2, 2, 2, 2, 2, 2, 2, 2, 2, 2, 2, 2, 2, 2, 2, 2, 2, 2, 2, 2, 2, 2, 2, 2, 2, 2, 2, 2, 2, 2, 2, 2, 2, 2, 2, 2, 2, 2, 2, 2, 2, 2, 2, 2, 2, 2, 2, 2, 2] (
                        interpolation = "vertex"
                    )
                    uniform token wrap = "nonperiodic"
                }

                def BasisCurves "Tube_transition_1"
                {
                    uniform token basis = "bezier"
                    int[] curveVertexCounts = [16]
                    point3f[] points = [(39343.32, 0, 29845.086), (39438.645, 0, 29875.312), (39534.016, 0, 29905.379), (39629.438, 0, 29935.287), (39724.91, 0, 29965.037), (39820.434, 0, 29994.627), (39916.004, 0, 30024.059), (40011.625, 0, 30053.33), (40107.293, 0, 30082.441), (40203.01, 0, 30111.395), (40298.773, 0, 30140.188), (40394.59, 0, 30168.82), (40490.45, 0, 30197.295), (40586.355, 0, 30225.607), (40682.312, 0, 30253.762), (40778.312, 0, 30281.756)]
                    color3f[] primvars:displayColor = [(0.2, 1, 0.6)]
                    float[] primvars:displayOpacity = [0.35]
                    uniform token type = "linear"
                    float[] widths = [2, 2, 2, 2, 2, 2, 2, 2, 2, 2, 2, 2, 2, 2, 2, 2] (
                        interpolation = "vertex"
                    )
                    uniform token wrap = "nonperiodic"
                }

                def BasisCurves "Tube_transition_2"
                {
                    uniform token basis = "bezier"
                    int[] curveVertexCounts = [14]
                    point3f[] points = [(40778.312, 0, 30281.756), (40874.36, 0, 30309.596), (40970.45, 0, 30337.287), (41066.582, 0, 30364.834), (41162.75, 0, 30392.242), (41258.957, 0, 30419.521), (41355.203, 0, 30446.674), (41451.48, 0, 30473.705), (41547.79, 0, 30500.625), (41644.125, 0, 30527.436), (41740.492, 0, 30554.143), (41836.887, 0, 30580.756), (41933.305, 0, 30607.277), (42029.75, 0, 30633.717)]
                    color3f[] primvars:displayColor = [(1, 0.7, 0.2)]
                    float[] primvars:displayOpacity = [0.35]
                    uniform token type = "linear"
                    float[] widths = [2, 2, 2, 2, 2, 2, 2, 2, 2, 2, 2, 2, 2, 2] (
                        interpolation = "vertex"
                    )
                    uniform token wrap = "nonperiodic"
                }

                def BasisCurves "Tube_exit"
                {
                    uniform token basis = "bezier"
                    int[] curveVertexCounts = [15]
                    point3f[] points = [(42029.75, 0, 30633.717), (42120.418, 0, 30658.494), (42211.105, 0, 30683.209), (42301.81, 0, 30707.865), (42392.527, 0, 30732.465), (42483.258, 0, 30757.016), (42574.004, 0, 30781.523), (42664.758, 0, 30805.99), (42755.52, 0, 30830.422), (42846.293, 0, 30854.824), (42937.07, 0, 30879.203), (43027.855, 0, 30903.56), (43118.645, 0, 30927.904), (43209.434, 0, 30952.238), (43300.227, 0, 30976.566)]
                    color3f[] primvars:displayColor = [(1, 0.3, 0.2)]
                    float[] primvars:displayOpacity = [0.35]
                    uniform token type = "linear"
                    float[] widths = [2, 2, 2, 2, 2, 2, 2, 2, 2, 2, 2, 2, 2, 2, 2] (
                        interpolation = "vertex"
                    )
                    uniform token wrap = "nonperiodic"
                }

                def BasisCurves "ExitTrack"
                {
                    uniform token basis = "bezier"
                    int[] curveVertexCounts = [2]
                    point3f[] points = [(43300.227, 0, 30976.566), (67448.37, 0, 37447.043)]
                    color3f[] primvars:displayColor = [(0.45, 0.45, 0.48)]
                    float[] primvars:displayOpacity = [1]
                    uniform token type = "linear"
                    float[] widths = [0.2, 0.2] (
                        interpolation = "vertex"
                    )
                    uniform token wrap = "nonperiodic"
                }

                def Sphere "ExitMarker"
                {
                    color3f[] primvars:displayColor = [(1, 0.15, 0.05)]
                    double radius = 2
                    double3 xformOp:translate = (43300.22519145092, 0, 30976.56645646667)
                    uniform token[] xformOpOrder = ["xformOp:translate"]
                }
            }

            def Xform "Schematic"
            {
                token visibility = "inherited"

                def BasisCurves "Tube_vacuum"
                {
                    uniform token basis = "bezier"
                    int[] curveVertexCounts = [501]
                    point3f[] points = [(0, 0, 0), (70.71068, 0, 70.71068), (141.42136, 0, 141.42136), (212.13203, 0, 212.13203), (282.8427, 0, 282.8427), (353.5534, 0, 353.5534), (424.26407, 0, 424.26407), (494.97476, 0, 494.97476), (565.6854, 0, 565.6854), (636.3961, 0, 636.3961), (707.1068, 0, 707.1068), (777.81744, 0, 777.81744), (848.52814, 0, 848.52814), (919.23883, 0, 919.23883), (989.9495, 0, 989.9495), (1060.6602, 0, 1060.6602), (1131.3708, 0, 1131.3708), (1202.0815, 0, 1202.0815), (1272.7922, 0, 1272.7922), (1343.5029, 0, 1343.5029), (1414.2136, 0, 1414.2136), (1484.9242, 0, 1484.9242), (1555.6349, 0, 1555.6349), (1626.3456, 0, 1626.3456), (1697.0563, 0, 1697.0563), (1767.767, 0, 1767.767), (1838.4777, 0, 1838.4777), (1909.1884, 0, 1909.1884), (1979.899, 0, 1979.899), (2050.6096, 0, 2050.6096), (2121.3203, 0, 2121.3203), (2192.031, 0, 2192.031), (2262.7417, 0, 2262.7417), (2333.4524, 0, 2333.4524), (2404.163, 0, 2404.163), (2474.8738, 0, 2474.8738), (2545.5845, 0, 2545.5845), (2616.2952, 0, 2616.2952), (2687.0059, 0, 2687.0059), (2757.7166, 0, 2757.7166), (2828.4272, 0, 2828.4272), (2899.1377, 0, 2899.1377), (2969.8484, 0, 2969.8484), (3040.559, 0, 3040.559), (3111.2698, 0, 3111.2698), (3181.9805, 0, 3181.9805), (3252.6912, 0, 3252.6912), (3323.4019, 0, 3323.4019), (3394.1125, 0, 3394.1125), (3464.8232, 0, 3464.8232), (3535.534, 0, 3535.534), (3606.2446, 0, 3606.2446), (3676.9553, 0, 3676.9553), (3747.666, 0, 3747.666), (3818.3767, 0, 3818.3767), (3889.0874, 0, 3889.0874), (3959.798, 0, 3959.798), (4030.5085, 0, 4030.5085), (4101.219, 0, 4101.219), (4171.93, 0, 4171.93), (4242.6406, 0, 4242.6406), (4313.3516, 0, 4313.3516), (4384.062, 0, 4384.062), (4454.773, 0, 4454.773), (4525.4834, 0, 4525.4834), (4596.194, 0, 4596.194), (4666.905, 0, 4666.905), (4737.615, 0, 4737.615), (4808.326, 0, 4808.326), (4879.0366, 0, 4879.0366), (4949.7476, 0, 4949.7476), (5020.458, 0, 5020.458), (5091.169, 0, 5091.169), (5161.8794, 0, 5161.8794), (5232.5903, 0, 5232.5903), (5303.301, 0, 5303.301), (5374.0117, 0, 5374.0117), (5444.722, 0, 5444.722), (5515.433, 0, 5515.433), (5586.1436, 0, 5586.1436), (5656.8545, 0, 5656.8545), (5727.565, 0, 5727.565), (5798.2754, 0, 5798.2754), (5868.9863, 0, 5868.9863), (5939.697, 0, 5939.697), (6010.4077, 0, 6010.4077), (6081.118, 0, 6081.118), (6151.829, 0, 6151.829), (6222.5396, 0, 6222.5396), (6293.2505, 0, 6293.2505), (6363.961, 0, 6363.961), (6434.672, 0, 6434.672), (6505.3823, 0, 6505.3823), (6576.0933, 0, 6576.0933), (6646.8037, 0, 6646.8037), (6717.5146, 0, 6717.5146), (6788.225, 0, 6788.225), (6858.9355, 0, 6858.9355), (6929.6465, 0, 6929.6465), (7000.357, 0, 7000.357), (7071.068, 0, 7071.068), (7141.7783, 0, 7141.7783), (7212.4893, 0, 7212.4893), (7283.1997, 0, 7283.1997), (7353.9106, 0, 7353.9106), (7424.621, 0, 7424.621), (7495.332, 0, 7495.332), (7566.0425, 0, 7566.0425), (7636.7534, 0, 7636.7534), (7707.464, 0, 7707.464), (7778.175, 0, 7778.175), (7848.8853, 0, 7848.8853), (7919.596, 0, 7919.596), (7990.3066, 0, 7990.3066), (8061.017, 0, 8061.017), (8131.728, 0, 8131.728), (8202.438, 0, 8202.438), (8273.149, 0, 8273.149), (8343.86, 0, 8343.86), (8414.57, 0, 8414.57), (8485.281, 0, 8485.281), (8555.992, 0, 8555.992), (8626.703, 0, 8626.703), (8697.413, 0, 8697.413), (8768.124, 0, 8768.124), (8838.835, 0, 8838.835), (8909.546, 0, 8909.546), (8980.256, 0, 8980.256), (9050.967, 0, 9050.967), (9121.678, 0, 9121.678), (9192.388, 0, 9192.388), (9263.099, 0, 9263.099), (9333.81, 0, 9333.81), (9404.5205, 0, 9404.5205), (9475.23, 0, 9475.23), (9545.941, 0, 9545.941), (9616.652, 0, 9616.652), (9687.363, 0, 9687.363), (9758.073, 0, 9758.073), (9828.784, 0, 9828.784), (9899.495, 0, 9899.495), (9970.206, 0, 9970.206), (10040.916, 0, 10040.916), (10111.627, 0, 10111.627), (10182.338, 0, 10182.338), (10253.048, 0, 10253.048), (10323.759, 0, 10323.759), (10394.47, 0, 10394.47), (10465.181, 0, 10465.181), (10535.891, 0, 10535.891), (10606.602, 0, 10606.602), (10677.3125, 0, 10677.3125), (10748.023, 0, 10748.023), (10818.733, 0, 10818.733), (10889.444, 0, 10889.444), (10960.155, 0, 10960.155), (11030.866, 0, 11030.866), (11101.576, 0, 11101.576), (11172.287, 0, 11172.287), (11242.998, 0, 11242.998), (11313.709, 0, 11313.709), (11384.419, 0, 11384.419), (11455.13, 0, 11455.13), (11525.841, 0, 11525.841), (11596.551, 0, 11596.551), (11667.262, 0, 11667.262), (11737.973, 0, 11737.973), (11808.684, 0, 11808.684), (11879.394, 0, 11879.394), (11950.1045, 0, 11950.1045), (12020.815, 0, 12020.815), (12091.526, 0, 12091.526), (12162.236, 0, 12162.236), (12232.947, 0, 12232.947), (12303.658, 0, 12303.658), (12374.369, 0, 12374.369), (12445.079, 0, 12445.079), (12515.79, 0, 12515.79), (12586.501, 0, 12586.501), (12657.211, 0, 12657.211), (12727.922, 0, 12727.922), (12798.633, 0, 12798.633), (12869.344, 0, 12869.344), (12940.054, 0, 12940.054), (13010.765, 0, 13010.765), (13081.476, 0, 13081.476), (13152.187, 0, 13152.187), (13222.896, 0, 13222.896), (13293.607, 0, 13293.607), (13364.318, 0, 13364.318), (13435.029, 0, 13435.029), (13505.739, 0, 13505.739), (13576.45, 0, 13576.45), (13647.161, 0, 13647.161), (13717.871, 0, 13717.871), (13788.582, 0, 13788.582), (13859.293, 0, 13859.293), (13930.004, 0, 13930.004), (14000.714, 0, 14000.714), (14071.425, 0, 14071.425), (14142.136, 0, 14142.136), (14212.847, 0, 14212.846), (14283.5625, 0, 14283.551), (14354.287, 0, 14354.248), (14425.024, 0, 14424.932), (14495.78, 0, 14495.598), (14566.557, 0, 14566.242), (14637.359, 0, 14636.86), (14708.193, 0, 14707.448), (14779.062, 0, 14778.001), (14849.969, 0, 14848.515), (14920.92, 0, 14918.983), (14991.919, 0, 14989.405), (15062.97, 0, 15059.773), (15134.078, 0, 15130.085), (15205.246, 0, 15200.336), (15276.4795, 0, 15270.52), (15347.781, 0, 15340.634), (15419.157, 0, 15410.673), (15490.611, 0, 15480.632), (15562.147, 0, 15550.508), (15633.77, 0, 15620.295), (15705.481, 0, 15689.99), (15777.289, 0, 15759.587), (15849.194, 0, 15829.082), (15921.203, 0, 15898.471), (15993.319, 0, 15967.747), (16065.546, 0, 16036.909), (16137.887, 0, 16105.95), (16210.343, 0, 16174.871), (16282.914, 0, 16243.672), (16355.6, 0, 16312.351), (16428.398, 0, 16380.908), (16501.312, 0, 16449.346), (16574.342, 0, 16517.66), (16647.482, 0, 16585.854), (16720.738, 0, 16653.924), (16794.107, 0, 16721.873), (16867.588, 0, 16789.7), (16941.184, 0, 16857.402), (17014.89, 0, 16924.984), (17088.71, 0, 16992.441), (17162.643, 0, 17059.777), (17236.688, 0, 17126.988), (17310.844, 0, 17194.078), (17385.111, 0, 17261.041), (17459.492, 0, 17327.883), (17533.982, 0, 17394.6), (17608.584, 0, 17461.191), (17683.297, 0, 17527.66), (17758.121, 0, 17594.002), (17833.055, 0, 17660.22), (17908.1, 0, 17726.314), (17983.254, 0, 17792.283), (18058.518, 0, 17858.127), (18133.89, 0, 17923.844), (18209.375, 0, 17989.436), (18284.967, 0, 18054.902), (18360.668, 0, 18120.242), (18436.479, 0, 18185.455), (18512.396, 0, 18250.543), (18588.424, 0, 18315.502), (18664.56, 0, 18380.336), (18740.803, 0, 18445.043), (18817.154, 0, 18509.623), (18893.613, 0, 18574.074), (18970.178, 0, 18638.398), (19046.852, 0, 18702.596), (19123.63, 0, 18766.666), (19200.518, 0, 18830.607), (19277.512, 0, 18894.42), (19354.61, 0, 18958.104), (19431.816, 0, 19021.66), (19509.127, 0, 19085.086), (19586.543, 0, 19148.385), (19664.064, 0, 19211.555), (19741.693, 0, 19274.594), (19819.426, 0, 19337.504), (19897.262, 0, 19400.285), (19975.203, 0, 19462.936), (20053.25, 0, 19525.455), (20131.398, 0, 19587.846), (20209.652, 0, 19650.107), (20288.01, 0, 19712.236), (20366.47, 0, 19774.236), (20445.035, 0, 19836.104), (20523.703, 0, 19897.842), (20602.473, 0, 19959.447), (20681.344, 0, 20020.922), (20760.32, 0, 20082.266), (20839.396, 0, 20143.477), (20918.574, 0, 20204.557), (20997.855, 0, 20265.504), (21077.238, 0, 20326.318), (21156.72, 0, 20387.002), (21236.305, 0, 20447.553), (21315.99, 0, 20507.969), (21395.775, 0, 20568.254), (21475.662, 0, 20628.406), (21555.648, 0, 20688.424), (21635.734, 0, 20748.309), (21715.92, 0, 20808.06), (21796.205, 0, 20867.678), (21876.59, 0, 20927.162), (21957.074, 0, 20986.512), (22037.656, 0, 21045.729), (22118.336, 0, 21104.809), (22199.115, 0, 21163.756), (22279.994, 0, 21222.568), (22360.969, 0, 21281.244), (22442.041, 0, 21339.787), (22523.213, 0, 21398.193), (22604.48, 0, 21456.465), (22685.844, 0, 21514.602), (22767.307, 0, 21572.602), (22848.863, 0, 21630.465), (22930.518, 0, 21688.193), (23012.27, 0, 21745.785), (23094.115, 0, 21803.242), (23176.057, 0, 21860.56), (23258.094, 0, 21917.744), (23340.227, 0, 21974.79), (23422.455, 0, 22031.7), (23504.777, 0, 22088.47), (23587.193, 0, 22145.105), (23669.705, 0, 22201.602), (23752.31, 0, 22257.96), (23835.008, 0, 22314.184), (23917.8, 0, 22370.268), (24000.688, 0, 22426.213), (24083.666, 0, 22482.021), (24166.738, 0, 22537.69), (24249.902, 0, 22593.22), (24333.16, 0, 22648.613), (24416.508, 0, 22703.865), (24499.95, 0, 22758.98), (24583.482, 0, 22813.955), (24667.107, 0, 22868.791), (24750.822, 0, 22923.486), (24834.629, 0, 22978.043), (24918.527, 0, 23032.46), (25002.516, 0, 23086.736), (25086.594, 0, 23140.875), (25170.762, 0, 23194.871), (25255.021, 0, 23248.727), (25339.37, 0, 23302.443), (25423.807, 0, 23356.018), (25508.334, 0, 23409.453), (25592.95, 0, 23462.746), (25677.654, 0, 23515.898), (25762.445, 0, 23568.91), (25847.328, 0, 23621.78), (25932.297, 0, 23674.508), (26017.354, 0, 23727.094), (26102.498, 0, 23779.54), (26187.729, 0, 23831.842), (26273.047, 0, 23884.002), (26358.453, 0, 23936.02), (26443.945, 0, 23987.896), (26529.523, 0, 24039.629), (26615.188, 0, 24091.219), (26700.94, 0, 24142.668), (26786.775, 0, 24193.973), (26872.695, 0, 24245.133), (26958.703, 0, 24296.152), (27044.795, 0, 24347.027), (27130.97, 0, 24397.758), (27217.23, 0, 24448.346), (27303.576, 0, 24498.79), (27390.004, 0, 24549.09), (27476.516, 0, 24599.246), (27563.113, 0, 24649.258), (27649.791, 0, 24699.125), (27736.553, 0, 24748.846), (27823.398, 0, 24798.424), (27910.326, 0, 24847.857), (27997.336, 0, 24897.146), (28084.428, 0, 24946.29), (28171.602, 0, 24995.287), (28258.855, 0, 25044.139), (28346.191, 0, 25092.846), (28433.61, 0, 25141.408), (28521.107, 0, 25189.822), (28608.686, 0, 25238.092), (28696.346, 0, 25286.217), (28784.084, 0, 25334.193), (28871.904, 0, 25382.025), (28959.803, 0, 25429.709), (29047.78, 0, 25477.248), (29135.838, 0, 25524.639), (29223.973, 0, 25571.885), (29312.188, 0, 25618.982), (29400.48, 0, 25665.932), (29488.852, 0, 25712.736), (29577.3, 0, 25759.393), (29665.826, 0, 25805.9), (29754.432, 0, 25852.262), (29843.111, 0, 25898.475), (29931.87, 0, 25944.54), (30020.705, 0, 25990.457), (30109.615, 0, 26036.227), (30198.604, 0, 26081.848), (30287.666, 0, 26127.32), (30376.805, 0, 26172.645), (30466.02, 0, 26217.82), (30555.309, 0, 26262.846), (30644.672, 0, 26307.725), (30734.111, 0, 26352.453), (30823.625, 0, 26397.033), (30913.213, 0, 26441.463), (31002.873, 0, 26485.744), (31092.61, 0, 26529.877), (31182.418, 0, 26573.857), (31272.299, 0, 26617.69), (31362.254, 0, 26661.373), (31452.281, 0, 26704.904), (31542.38, 0, 26748.287), (31632.553, 0, 26791.52), (31722.797, 0, 26834.602), (31813.113, 0, 26877.533), (31903.5, 0, 26920.312), (31993.957, 0, 26962.943), (32084.486, 0, 27005.422), (32175.086, 0, 27047.75), (32265.758, 0, 27089.928), (32356.498, 0, 27131.953), (32447.309, 0, 27173.828), (32538.188, 0, 27215.55), (32629.137, 0, 27257.123), (32720.156, 0, 27298.543), (32811.242, 0, 27339.812), (32902.4, 0, 27380.928), (32993.625, 0, 27421.893), (33084.918, 0, 27462.705), (33176.277, 0, 27503.365), (33267.703, 0, 27543.873), (33359.2, 0, 27584.229), (33450.76, 0, 27624.432), (33542.395, 0, 27664.482), (33634.09, 0, 27704.379), (33725.85, 0, 27744.123), (33817.68, 0, 27783.715), (33909.574, 0, 27823.154), (34001.535, 0, 27862.44), (34093.56, 0, 27901.57), (34185.652, 0, 27940.549), (34277.805, 0, 27979.375), (34370.027, 0, 28018.045), (34462.312, 0, 28056.562), (34554.66, 0, 28094.928), (34647.07, 0, 28133.137), (34739.547, 0, 28171.191), (34832.086, 0, 28209.094), (34924.688, 0, 28246.842), (35017.35, 0, 28284.434), (35110.082, 0, 28321.871), (35202.87, 0, 28359.156), (35295.723, 0, 28396.285), (35388.637, 0, 28433.26), (35481.61, 0, 28470.078), (35574.645, 0, 28506.742), (35667.742, 0, 28543.252), (35760.902, 0, 28579.605), (35854.12, 0, 28615.805), (35947.4, 0, 28651.848), (36040.74, 0, 28687.736), (36134.133, 0, 28723.467), (36227.594, 0, 28759.043), (36321.11, 0, 28794.465), (36414.684, 0, 28829.729), (36508.32, 0, 28864.838), (36602.01, 0, 28899.791), (36695.76, 0, 28934.586), (36789.57, 0, 28969.227), (36883.438, 0, 29003.71), (36977.36, 0, 29038.037), (37071.34, 0, 29072.209), (37165.38, 0, 29106.223), (37259.473, 0, 29140.08), (37353.625, 0, 29173.78), (37447.83, 0, 29207.322), (37542.094, 0, 29240.709), (37636.41, 0, 29273.938), (37730.78, 0, 29307.01), (37825.21, 0, 29339.924), (37919.69, 0, 29372.682), (38014.23, 0, 29405.281), (38108.82, 0, 29437.723), (38203.47, 0, 29470.008), (38298.164, 0, 29502.135), (38392.918, 0, 29534.104), (38487.723, 0, 29565.914), (38582.582, 0, 29597.566), (38677.492, 0, 29629.06), (38772.457, 0, 29660.396), (38867.473, 0, 29691.574), (38962.54, 0, 29722.594), (39057.656, 0, 29753.455), (39152.83, 0, 29784.158), (39248.05, 0, 29814.701), (39343.32, 0, 29845.086)]
                    color3f[] primvars:displayColor = [(0.2, 0.5, 1)]
                    float[] primvars:displayOpacity = [0.35]
                    uniform token type = "linear"
                    float[] widths = [180.38643, 180.38643, 180.38643, 180.38643, 180.38643, 180.38643, 180.38643, 180.38643, 180.38643, 180.38643, 180.38643, 180.38643, 180.38643, 180.38643, 180.38643, 180.38643, 180.38643, 180.38643, 180.38643, 180.38643, 180.38643, 180.38643, 180.38643, 180.38643, 180.38643, 180.38643, 180.38643, 180.38643, 180.38643, 180.38643, 180.38643, 180.38643, 180.38643, 180.38643, 180.38643, 180.38643, 180.38643, 180.38643, 180.38643, 180.38643, 180.38643, 180.38643, 180.38643, 180.38643, 180.38643, 180.38643, 180.38643, 180.38643, 180.38643, 180.38643, 180.38643, 180.38643, 180.38643, 180.38643, 180.38643, 180.38643, 180.38643, 180.38643, 180.38643, 180.38643, 180.38643, 180.38643, 180.38643, 180.38643, 180.38643, 180.38643, 180.38643, 180.38643, 180.38643, 180.38643, 180.38643, 180.38643, 180.38643, 180.38643, 180.38643, 180.38643, 180.38643, 180.38643, 180.38643, 180.38643, 180.38643, 180.38643, 180.38643, 180.38643, 180.38643, 180.38643, 180.38643, 180.38643, 180.38643, 180.38643, 180.38643, 180.38643, 180.38643, 180.38643, 180.38643, 180.38643, 180.38643, 180.38643, 180.38643, 180.38643, 180.38643, 180.38643, 180.38643, 180.38643, 180.38643, 180.38643, 180.38643, 180.38643, 180.38643, 180.38643, 180.38643, 180.38643, 180.38643, 180.38643, 180.38643, 180.38643, 180.38643, 180.38643, 180.38643, 180.38643, 180.38643, 180.38643, 180.38643, 180.38643, 180.38643, 180.38643, 180.38643, 180.38643, 180.38643, 180.38643, 180.38643, 180.38643, 180.38643, 180.38643, 180.38643, 180.38643, 180.38643, 180.38643, 180.38643, 180.38643, 180.38643, 180.38643, 180.38643, 180.38643, 180.38643, 180.38643, 180.38643, 180.38643, 180.38643, 180.38643, 180.38643, 180.38643, 180.38643, 180.38643, 180.38643, 180.38643, 180.38643, 180.38643, 180.38643, 180.38643, 180.38643, 180.38643, 180.38643, 180.38643, 180.38643, 180.38643, 180.38643, 180.38643, 180.38643, 180.38643, 180.38643, 180.38643, 180.38643, 180.38643, 180.38643, 180.38643, 180.38643, 180.38643, 180.38643, 180.38643, 180.38643, 180.38643, 180.38643, 180.38643, 180.38643, 180.38643, 180.38643, 180.38643, 180.38643, 180.38643, 180.38643, 180.38643, 180.38643, 180.38643, 180.38643, 180.38643, 180.38643, 180.38643, 180.38643, 180.38643, 180.38643, 180.38643, 180.38643, 180.38643, 180.38643, 180.38643, 180.38643, 180.38643, 180.38643, 180.38643, 180.38643, 180.38643, 180.38643, 180.38643, 180.38643, 180.38643, 180.38643, 180.38643, 180.38643, 180.38643, 180.38643, 180.38643, 180.38643, 180.38643, 180.38643, 180.38643, 180.38643, 180.38643, 180.38643, 180.38643, 180.38643, 180.38643, 180.38643, 180.38643, 180.38643, 180.38643, 180.38643, 180.38643, 180.38643, 180.38643, 180.38643, 180.38643, 180.38643, 180.38643, 180.38643, 180.38643, 180.38643, 180.38643, 180.38643, 180.38643, 180.38643, 180.38643, 180.38643, 180.38643, 180.38643, 180.38643, 180.38643, 180.38643, 180.38643, 180.38643, 180.38643, 180.38643, 180.38643, 180.38643, 180.38643, 180.38643, 180.38643, 180.38643, 180.38643, 180.38643, 180.38643, 180.38643, 180.38643, 180.38643, 180.38643, 180.38643, 180.38643, 180.38643, 180.38643, 180.38643, 180.38643, 180.38643, 180.38643, 180.38643, 180.38643, 180.38643, 180.38643, 180.38643, 180.38643, 180.38643, 180.38643, 180.38643, 180.38643, 180.38643, 180.38643, 180.38643, 180.38643, 180.38643, 180.38643, 180.38643, 180.38643, 180.38643, 180.38643, 180.38643, 180.38643, 180.38643, 180.38643, 180.38643, 180.38643, 180.38643, 180.38643, 180.38643, 180.38643, 180.38643, 180.38643, 180.38643, 180.38643, 180.38643, 180.38643, 180.38643, 180.38643, 180.38643, 180.38643, 180.38643, 180.38643, 180.38643, 180.38643, 180.38643, 180.38643, 180.38643, 180.38643, 180.38643, 180.38643, 180.38643, 180.38643, 180.38643, 180.38643, 180.38643, 180.38643, 180.38643, 180.38643, 180.38643, 180.38643, 180.38643, 180.38643, 180.38643, 180.38643, 180.38643, 180.38643, 180.38643, 180.38643, 180.38643, 180.38643, 180.38643, 180.38643, 180.38643, 180.38643, 180.38643, 180.38643, 180.38643, 180.38643, 180.38643, 180.38643, 180.38643, 180.38643, 180.38643, 180.38643, 180.38643, 180.38643, 180.38643, 180.38643, 180.38643, 180.38643, 180.38643, 180.38643, 180.38643, 180.38643, 180.38643, 180.38643, 180.38643, 180.38643, 180.38643, 180.38643, 180.38643, 180.38643, 180.38643, 180.38643, 180.38643, 180.38643, 180.38643, 180.38643, 180.38643, 180.38643, 180.38643, 180.38643, 180.38643, 180.38643, 180.38643, 180.38643, 180.38643, 180.38643, 180.38643, 180.38643, 180.38643, 180.38643, 180.38643, 180.38643, 180.38643, 180.38643, 180.38643, 180.38643, 180.38643, 180.38643, 180.38643, 180.38643, 180.38643, 180.38643, 180.38643, 180.38643, 180.38643, 180.38643, 180.38643, 180.38643, 180.38643, 180.38643, 180.38643, 180.38643, 180.38643, 180.38643, 180.38643, 180.38643, 180.38643, 180.38643, 180.38643, 180.38643, 180.38643, 180.38643, 180.38643, 180.38643, 180.38643, 180.38643, 180.38643, 180.38643, 180.38643, 180.38643, 180.38643, 180.38643, 180.38643, 180.38643, 180.38643, 180.38643, 180.38643, 180.38643, 180.38643, 180.38643, 180.38643, 180.38643, 180.38643, 180.38643, 180.38643, 180.38643, 180.38643, 180.38643, 180.38643, 180.38643, 180.38643, 180.38643, 180.38643, 180.38643, 180.38643, 180.38643, 180.38643, 180.38643, 180.38643, 180.38643, 180.38643, 180.38643, 180.38643, 180.38643, 180.38643, 180.38643, 180.38643, 180.38643, 180.38643, 180.38643, 180.38643, 180.38643, 180.38643, 180.38643, 180.38643, 180.38643, 180.38643, 180.38643, 180.38643, 180.38643, 180.38643, 180.38643, 180.38643, 180.38643, 180.38643, 180.38643] (
                        interpolation = "vertex"
                    )
                    uniform token wrap = "nonperiodic"
                }

                def BasisCurves "Tube_transition_1"
                {
                    uniform token basis = "bezier"
                    int[] curveVertexCounts = [16]
                    point3f[] points = [(39343.32, 0, 29845.086), (39438.645, 0, 29875.312), (39534.016, 0, 29905.379), (39629.438, 0, 29935.287), (39724.91, 0, 29965.037), (39820.434, 0, 29994.627), (39916.004, 0, 30024.059), (40011.625, 0, 30053.33), (40107.293, 0, 30082.441), (40203.01, 0, 30111.395), (40298.773, 0, 30140.188), (40394.59, 0, 30168.82), (40490.45, 0, 30197.295), (40586.355, 0, 30225.607), (40682.312, 0, 30253.762), (40778.312, 0, 30281.756)]
                    color3f[] primvars:displayColor = [(0.2, 1, 0.6)]
                    float[] primvars:displayOpacity = [0.35]
                    uniform token type = "linear"
                    float[] widths = [180.38643, 180.38643, 180.38643, 180.38643, 180.38643, 180.38643, 180.38643, 180.38643, 180.38643, 180.38643, 180.38643, 180.38643, 180.38643, 180.38643, 180.38643, 180.38643] (
                        interpolation = "vertex"
                    )
                    uniform token wrap = "nonperiodic"
                }

                def BasisCurves "Tube_transition_2"
                {
                    uniform token basis = "bezier"
                    int[] curveVertexCounts = [14]
                    point3f[] points = [(40778.312, 0, 30281.756), (40874.36, 0, 30309.596), (40970.45, 0, 30337.287), (41066.582, 0, 30364.834), (41162.75, 0, 30392.242), (41258.957, 0, 30419.521), (41355.203, 0, 30446.674), (41451.48, 0, 30473.705), (41547.79, 0, 30500.625), (41644.125, 0, 30527.436), (41740.492, 0, 30554.143), (41836.887, 0, 30580.756), (41933.305, 0, 30607.277), (42029.75, 0, 30633.717)]
                    color3f[] primvars:displayColor = [(1, 0.7, 0.2)]
                    float[] primvars:displayOpacity = [0.35]
                    uniform token type = "linear"
                    float[] widths = [180.38643, 180.38643, 180.38643, 180.38643, 180.38643, 180.38643, 180.38643, 180.38643, 180.38643, 180.38643, 180.38643, 180.38643, 180.38643, 180.38643] (
                        interpolation = "vertex"
                    )
                    uniform token wrap = "nonperiodic"
                }

                def BasisCurves "Tube_exit"
                {
                    uniform token basis = "bezier"
                    int[] curveVertexCounts = [15]
                    point3f[] points = [(42029.75, 0, 30633.717), (42120.418, 0, 30658.494), (42211.105, 0, 30683.209), (42301.81, 0, 30707.865), (42392.527, 0, 30732.465), (42483.258, 0, 30757.016), (42574.004, 0, 30781.523), (42664.758, 0, 30805.99), (42755.52, 0, 30830.422), (42846.293, 0, 30854.824), (42937.07, 0, 30879.203), (43027.855, 0, 30903.56), (43118.645, 0, 30927.904), (43209.434, 0, 30952.238), (43300.227, 0, 30976.566)]
                    color3f[] primvars:displayColor = [(1, 0.3, 0.2)]
                    float[] primvars:displayOpacity = [0.35]
                    uniform token type = "linear"
                    float[] widths = [180.38643, 180.38643, 180.38643, 180.38643, 180.38643, 180.38643, 180.38643, 180.38643, 180.38643, 180.38643, 180.38643, 180.38643, 180.38643, 180.38643, 180.38643] (
                        interpolation = "vertex"
                    )
                    uniform token wrap = "nonperiodic"
                }

                def BasisCurves "ExitTrack"
                {
                    uniform token basis = "bezier"
                    int[] curveVertexCounts = [2]
                    point3f[] points = [(43300.227, 0, 30976.566), (67448.37, 0, 37447.043)]
                    color3f[] primvars:displayColor = [(0.45, 0.45, 0.48)]
                    float[] primvars:displayOpacity = [1]
                    uniform token type = "linear"
                    float[] widths = [90.193214, 90.193214] (
                        interpolation = "vertex"
                    )
                    uniform token wrap = "nonperiodic"
                }

                def Sphere "ExitMarker"
                {
                    color3f[] primvars:displayColor = [(1, 0.15, 0.05)]
                    double radius = 360.7728441178149
                    double3 xformOp:translate = (43300.22519145092, 0, 30976.56645646667)
                    uniform token[] xformOpOrder = ["xformOp:translate"]
                }
            }
        }

        def Xform "Lighting"
        {
            def DistantLight "Key"
            {
                float inputs:angle = 1
                float inputs:intensity = 900
                float3 xformOp:rotateXYZ = (-35, 35, 0)
                uniform token[] xformOpOrder = ["xformOp:rotateXYZ"]
            }

            def DomeLight "Fill"
            {
                float inputs:intensity = 120
            }
        }

        def Xform "Bodies"
        {
            def Xform "Cradle" (
                prepend apiSchemas = ["PhysicsRigidBodyAPI", "PhysicsMassAPI", "PhysxContactReportAPI", "PhysxRigidBodyAPI"]
            )
            {
                vector3f physics:angularVelocity = (0, 0.00001761184, 0)
                float physics:mass = 250
                vector3f physics:velocity = (-1.305284e-7, 0, -9.810059)
                float physxContactReport:threshold = 0
                bool physxRigidBody:enableCCD = 0
                quatf xformOp:orient = (0.9238795, 0, -0.3826835, 0)
                float3 xformOp:scale = (1, 1, 1)
                double3 xformOp:translate = (-0.002651648595929146, 0, -9.668192863464355)
                uniform token[] xformOpOrder = ["xformOp:translate", "xformOp:orient", "xformOp:scale"]

                def Cube "Floor" (
                    prepend apiSchemas = ["PhysicsCollisionAPI"]
                )
                {
                    color3f[] primvars:displayColor = [(0.18, 0.2, 0.24)]
                    double size = 1
                    float3 xformOp:scale = (4.2, 1.2, 0.1)
                    double3 xformOp:translate = (0, 0, -0.6499999761581421)
                    uniform token[] xformOpOrder = ["xformOp:translate", "xformOp:scale"]
                }

                def Cube "LeftRail" (
                    prepend apiSchemas = ["PhysicsCollisionAPI"]
                )
                {
                    color3f[] primvars:displayColor = [(0.18, 0.2, 0.24)]
                    double size = 1
                    float3 xformOp:scale = (4.2, 0.1, 1.3)
                    double3 xformOp:translate = (0, -0.550000011920929, 0.05000000074505806)
                    uniform token[] xformOpOrder = ["xformOp:translate", "xformOp:scale"]
                }

                def Cube "RightRail" (
                    prepend apiSchemas = ["PhysicsCollisionAPI"]
                )
                {
                    color3f[] primvars:displayColor = [(0.18, 0.2, 0.24)]
                    double size = 1
                    float3 xformOp:scale = (4.2, 0.1, 1.3)
                    double3 xformOp:translate = (0, 0.550000011920929, 0.05000000074505806)
                    uniform token[] xformOpOrder = ["xformOp:translate", "xformOp:scale"]
                }

                def Cube "RearWall" (
                    prepend apiSchemas = ["PhysicsCollisionAPI"]
                )
                {
                    color3f[] primvars:displayColor = [(0.18, 0.2, 0.24)]
                    double size = 1
                    float3 xformOp:scale = (0.1, 1.2, 1.3)
                    double3 xformOp:translate = (-2.049999952316284, 0, 0.05000000074505806)
                    uniform token[] xformOpOrder = ["xformOp:translate", "xformOp:scale"]
                }
            }

            def Xform "Rocket" (
                prepend apiSchemas = ["PhysicsRigidBodyAPI", "PhysicsMassAPI", "PhysxContactReportAPI", "PhysxRigidBodyAPI"]
            )
            {
                vector3f physics:angularVelocity = (0, 0.000017611841, 0)
                float physics:mass = 150
                vector3f physics:velocity = (2.2015092e-7, 0, -9.810059)
                float physxContactReport:threshold = 0
                bool physxRigidBody:enableCCD = 0
                quatf xformOp:orient = (0.9238795, 0, -0.3826835, 0)
                float3 xformOp:scale = (1, 1, 1)
                double3 xformOp:translate = (0.004419430159032345, 0, -9.661121368408203)
                uniform token[] xformOpOrder = ["xformOp:translate", "xformOp:orient", "xformOp:scale"]

                def Cylinder "Collision" (
                    prepend apiSchemas = ["PhysicsCollisionAPI"]
                )
                {
                    uniform token axis = "X"
                    double height = 4
                    color3f[] primvars:displayColor = [(0.7, 0.72, 0.76)]
                    double radius = 0.25
                }
            }
        }

        def Xform "Joints"
        {
            def PhysicsFixedJoint "CartRocketFixedJoint"
            {
                rel physics:body0 = </World/VacuumTubeLauncher/Bodies/Cradle>
                rel physics:body1 = </World/VacuumTubeLauncher/Bodies/Rocket>
                bool physics:collisionEnabled = 1
                uniform bool physics:excludeFromArticulation = 1
                bool physics:jointEnabled = 1
                point3f physics:localPos0 = (0.01, 0, 0)
                point3f physics:localPos1 = (0, 0, 0)
                quatf physics:localRot0 = (1, 0, 0, 0)
                quatf physics:localRot1 = (1, 0, 0, 0)
            }
        }
    }
}

def Scope "Replicator"
{
    def Xform "Camera_Xform"
    {
        bool replicatorCameraXform
        bool replicatorXform = 1
        float3 xformOp:rotateXYZ = (83.8845, -0, 0)
        float3 xformOp:scale = (1, 1, 1)
        double3 xformOp:translate = (0.5656854249492381, -14, 2.0656854249492382)
        uniform token[] xformOpOrder = ["xformOp:translate", "xformOp:rotateXYZ", "xformOp:scale"]

        def Camera "Camera" (
            prepend apiSchemas = ["OmniRtxCameraAutoExposureAPI_1", "OmniRtxCameraExposureAPI_1"]
            append apiSchemas = ["OmniSensorAPI"]
        )
        {
            token cameraProjectionType = "pinhole"
            float4[] clippingPlanes = []
            float2 clippingRange = (1, 1000000)
            string crossCameraReferenceName
            float exposure:fStop = 5
            float exposure:responsivity = 1.1026709
            float exposure:time = 0.02
            float focalLength = 24
            float focusDistance = 400
            float fStop = 0
            float fthetaCx = 970.94244
            float fthetaCy = 600.3748
            float fthetaHeight = 1216
            float fthetaMaxFov = 200
            float fthetaPolyA = 0
            float fthetaPolyB = 0.00245
            float fthetaPolyC = 0
            float fthetaPolyD = 0
            float fthetaPolyE = 0
            float fthetaPolyF = 0
            float fthetaWidth = 1936
            float horizontalAperture = 20.955
            float horizontalApertureOffset = 0
            string omni:sensor:marketName = ""
            string omni:sensor:modelName = ""
            string omni:sensor:modelVendor = ""
            string omni:sensor:modelVersion = ""
            float omni:sensor:tickRate = 0
            float omni_col_sensor_col_tickRate
            float openCVFx = 731.7879
            float openCVFy = 731.7879
            float p0 = -0.00037
            float p1 = -0.00074
            token projection = "perspective"
            uniform token purpose = "default"
            float s0 = -0.00058
            float s1 = -0.00022
            float s2 = 0.00019
            float s3 = -0.0002
            double shutter:close = 0
            double shutter:open = 0
            uniform token stereoRole = "mono"
            float verticalApertureOffset = 0
            float3 xformOp:rotateXYZ = (0, -0, 0)
            float3 xformOp:scale = (1, 1, 1)
            double3 xformOp:translate = (0, 0, 0)
            uniform token[] xformOpOrder = ["xformOp:translate", "xformOp:rotateXYZ", "xformOp:scale"]
        }
    }

    def OmniGraph "SDGPipeline"
    {
        token evaluationMode = "Automatic"
        token evaluator:type = "execution"
        token fabricCacheBacking = "StageWithoutHistory"
        int2 fileFormatVersion = (1, 9)
        token pipelineStage = "pipelineStageSimulation"

        def OmniGraphNode "OgnGroup"
        {
            custom rel inputs:primsIn = </Replicator/Camera_Xform> (
                customData = {
                    dictionary omni = {
                        dictionary graph = {
                            string relType = "target"
                        }
                    }
                }
            )
            custom rel inputs:primsIn1 (
                customData = {
                    dictionary omni = {
                        dictionary graph = {
                            string relType = "target"
                        }
                    }
                }
            )
            token node:type = "omni.replicator.core.OgnGroup"
            int node:typeVersion = 1
            custom rel outputs:prims (
                customData = {
                    dictionary omni = {
                        dictionary graph = {
                            string relType = "target"
                        }
                    }
                }
            )
        }

        def OmniGraphNode "OgnGroup_01"
        {
            custom rel inputs:primsIn = </Replicator/Camera_Xform/Camera> (
                customData = {
                    dictionary omni = {
                        dictionary graph = {
                            string relType = "target"
                        }
                    }
                }
            )
            custom rel inputs:primsIn1 (
                customData = {
                    dictionary omni = {
                        dictionary graph = {
                            string relType = "target"
                        }
                    }
                }
            )
            token node:type = "omni.replicator.core.OgnGroup"
            int node:typeVersion = 1
            custom rel outputs:prims (
                customData = {
                    dictionary omni = {
                        dictionary graph = {
                            string relType = "target"
                        }
                    }
                }
            )
        }

        def OmniGraphNode "OgnGroup_02"
        {
            custom rel inputs:primsIn = </Replicator/Camera_Xform_01> (
                customData = {
                    dictionary omni = {
                        dictionary graph = {
                            string relType = "target"
                        }
                    }
                }
            )
            custom rel inputs:primsIn1 (
                customData = {
                    dictionary omni = {
                        dictionary graph = {
                            string relType = "target"
                        }
                    }
                }
            )
            token node:type = "omni.replicator.core.OgnGroup"
            int node:typeVersion = 1
            custom rel outputs:prims (
                customData = {
                    dictionary omni = {
                        dictionary graph = {
                            string relType = "target"
                        }
                    }
                }
            )
        }

        def OmniGraphNode "OgnGroup_03"
        {
            custom rel inputs:primsIn = </Replicator/Camera_Xform_01/Camera> (
                customData = {
                    dictionary omni = {
                        dictionary graph = {
                            string relType = "target"
                        }
                    }
                }
            )
            custom rel inputs:primsIn1 (
                customData = {
                    dictionary omni = {
                        dictionary graph = {
                            string relType = "target"
                        }
                    }
                }
            )
            token node:type = "omni.replicator.core.OgnGroup"
            int node:typeVersion = 1
            custom rel outputs:prims (
                customData = {
                    dictionary omni = {
                        dictionary graph = {
                            string relType = "target"
                        }
                    }
                }
            )
        }
    }

    def Xform "Camera_Xform_01"
    {
        bool replicatorCameraXform
        bool replicatorXform = 1
        float3 xformOp:rotateXYZ = (90, -0, 0)
        float3 xformOp:scale = (1, 1, 1)
        double3 xformOp:translate = (21650.11259572546, -74535.4684380666, 15488.283228233335)
        uniform token[] xformOpOrder = ["xformOp:translate", "xformOp:rotateXYZ", "xformOp:scale"]

        def Camera "Camera" (
            prepend apiSchemas = ["OmniRtxCameraAutoExposureAPI_1", "OmniRtxCameraExposureAPI_1"]
            append apiSchemas = ["OmniSensorAPI"]
        )
        {
            token cameraProjectionType = "pinhole"
            float4[] clippingPlanes = []
            float2 clippingRange = (1, 1000000)
            string crossCameraReferenceName
            float exposure:fStop = 5
            float exposure:responsivity = 1.1026709
            float exposure:time = 0.02
            float focalLength = 24
            float focusDistance = 400
            float fStop = 0
            float fthetaCx = 970.94244
            float fthetaCy = 600.3748
            float fthetaHeight = 1216
            float fthetaMaxFov = 200
            float fthetaPolyA = 0
            float fthetaPolyB = 0.00245
            float fthetaPolyC = 0
            float fthetaPolyD = 0
            float fthetaPolyE = 0
            float fthetaPolyF = 0
            float fthetaWidth = 1936
            float horizontalAperture = 20.955
            float horizontalApertureOffset = 0
            string omni:sensor:marketName = ""
            string omni:sensor:modelName = ""
            string omni:sensor:modelVendor = ""
            string omni:sensor:modelVersion = ""
            float omni:sensor:tickRate = 0
            float omni_col_sensor_col_tickRate
            float openCVFx = 731.7879
            float openCVFy = 731.7879
            float p0 = -0.00037
            float p1 = -0.00074
            token projection = "perspective"
            uniform token purpose = "default"
            float s0 = -0.00058
            float s1 = -0.00022
            float s2 = 0.00019
            float s3 = -0.0002
            double shutter:close = 0
            double shutter:open = 0
            uniform token stereoRole = "mono"
            float verticalApertureOffset = 0
            float3 xformOp:rotateXYZ = (0, -0, 0)
            float3 xformOp:scale = (1, 1, 1)
            double3 xformOp:translate = (0, 0, 0)
            uniform token[] xformOpOrder = ["xformOp:translate", "xformOp:rotateXYZ", "xformOp:scale"]
        }
    }
}

